<svg xmlns="http://www.w3.org/2000/svg" width="600" height="220" viewBox="0 0 600 220">
  <title>Light Soft</title>
  <!-- 라이트 — 가늘고 옅은 톤 -->
  <g transform="translate(70,110)">
    <g stroke="#5A3F33" stroke-linecap="round" fill="none" opacity="0.6">
      <path d="M0,8 Q45,-8 100,-12 Q150,-14 190,-4" stroke-width="6"/>
    </g>
    <g stroke="#3D2A22" stroke-width="1.4" stroke-linecap="round" fill="none" opacity="0.85">
      <path d="M5,5 q15,-4 30,-6"/>
      <path d="M40,-1 q20,-4 40,-6"/>
      <path d="M85,-7 q22,-2 45,-1"/>
      <path d="M135,-5 q18,2 35,5"/>
    </g>
  </g>
  <g transform="translate(530,110) scale(-1,1)">
    <g stroke="#5A3F33" stroke-linecap="round" fill="none" opacity="0.6">
      <path d="M0,8 Q45,-8 100,-12 Q150,-14 190,-4" stroke-width="6"/>
    </g>
    <g stroke="#3D2A22" stroke-width="1.4" stroke-linecap="round" fill="none" opacity="0.85">
      <path d="M5,5 q15,-4 30,-6"/>
      <path d="M40,-1 q20,-4 40,-6"/>
      <path d="M85,-7 q22,-2 45,-1"/>
      <path d="M135,-5 q18,2 35,5"/>
    </g>
  </g>
</svg>
